name Run_500 01_newCOP3_v24.mot
datacolumns 19
datarows 12
range 0.02500000 0.03645800
endheader
                time	   R_ground_force_vx	   R_ground_force_vy	   R_ground_force_vz	   R_ground_force_px	   R_ground_force_py	   R_ground_force_pz	   L_ground_force_vx	   L_ground_force_vy	   L_ground_force_vz	   L_ground_force_px	   L_ground_force_py	   L_ground_force_pz	   R_ground_torque_x	   R_ground_torque_y	   R_ground_torque_z	   L_ground_torque_x	   L_ground_torque_y	   L_ground_torque_z	
          0.02500000	          0.00000000	          0.00000000	          0.00000000	          0.00000000	          0.00000000	          0.00000000	        258.23431400	       1342.48962400	        -88.50651600	          0.95825900	          0.00000000	         -0.31967800	          0.00000000	          0.00000000	          0.00000000	         -0.00000000	         22.60632100	         -0.00000000	
          0.02604200	          0.00000000	          0.00000000	          0.00000000	          0.00000000	          0.00000000	          0.00000000	        257.77386500	       1313.42211900	        -87.25400500	          0.95574500	          0.00000000	         -0.31904400	          0.00000000	          0.00000000	          0.00000000	         -0.00000000	         21.92404600	         -0.00000000	
          0.02708300	          0.00000000	          0.00000000	          0.00000000	          0.00000000	          0.00000000	          0.00000000	        257.32598900	       1283.40197800	        -85.94514500	          0.95305100	          0.00000000	         -0.31837900	          0.00000000	          0.00000000	          0.00000000	         -0.00000000	         21.23258400	         -0.00000000	
          0.02812500	          0.00000000	          0.00000000	          0.00000000	          0.00000000	          0.00000000	          0.00000000	        256.90319800	       1252.56689500	        -84.58400000	          0.95018000	          0.00000000	         -0.31768800	          0.00000000	          0.00000000	          0.00000000	         -0.00000000	         20.53286400	         -0.00000000	
          0.02916700	          0.00000000	          0.00000000	          0.00000000	          0.00000000	          0.00000000	          0.00000000	        256.51403800	       1221.03222700	        -83.17421700	          0.94713600	          0.00000000	         -0.31697900	          0.00000000	          0.00000000	          0.00000000	         -0.00000000	         19.82585000	         -0.00000000	
          0.03020800	          0.00000000	          0.00000000	          0.00000000	          0.00000000	          0.00000000	          0.00000000	        256.16143800	       1188.90026900	        -81.71911600	          0.94392000	          0.00000000	         -0.31625800	          0.00000000	          0.00000000	          0.00000000	         -0.00000000	         19.11251800	         -0.00000000	
          0.03125000	          0.00000000	          0.00000000	          0.00000000	          0.00000000	          0.00000000	          0.00000000	        255.84161400	       1156.26635700	        -80.22180200	          0.94053700	          0.00000000	         -0.31553200	          0.00000000	          0.00000000	          0.00000000	         -0.00000000	         18.39387900	         -0.00000000	
          0.03229200	          0.00000000	          0.00000000	          0.00000000	          0.00000000	          0.00000000	          0.00000000	        255.54354900	       1123.22168000	        -78.68515800	          0.93699200	          0.00000000	         -0.31480700	          0.00000000	          0.00000000	          0.00000000	         -0.00000000	         17.67095000	         -0.00000000	
          0.03333300	          0.00000000	          0.00000000	          0.00000000	          0.00000000	          0.00000000	          0.00000000	        255.24867200	       1089.85510300	        -77.11194600	          0.93329300	          0.00000000	         -0.31408800	          0.00000000	          0.00000000	          0.00000000	         -0.00000000	         16.94476900	         -0.00000000	
          0.03437500	          0.00000000	          0.00000000	          0.00000000	          0.00000000	          0.00000000	          0.00000000	        254.93101500	       1056.25341800	        -75.50476800	          0.92945000	          0.00000000	         -0.31338000	          0.00000000	          0.00000000	          0.00000000	         -0.00000000	         16.21638700	         -0.00000000	
          0.03541700	          0.00000000	          0.00000000	          0.00000000	          0.00000000	          0.00000000	          0.00000000	        254.55792200	       1022.50164800	        -73.86614200	          0.92547200	          0.00000000	         -0.31268700	          0.00000000	          0.00000000	          0.00000000	         -0.00000000	         15.48686000	         -0.00000000	
          0.03645800	          0.00000000	          0.00000000	          0.00000000	          0.00000000	          0.00000000	          0.00000000	        254.09104900	        988.68267800	        -72.19850200	          0.92137600	          0.00000000	         -0.31201300	          0.00000000	          0.00000000	          0.00000000	         -0.00000000	         14.75725100	         -0.00000000	
